# xmcd CD database file
#
# Track frame offsets:
#	150
#	14107
#	29955
#	42422
#	54472
#	69507
#	75262
#	86442
#	93650
#	110752
#	122677
#	131902
#	138625
#
# Disc length: 2014 seconds
#
# Revision: 1
# Processed by: cddbd v1.5.2PL0 Copyright (c) Steve Scherf et al.
# Submitted via: CDex 1.51
#
DISCID=bf07dc0d
DTITLE=Dan Hicks - It Happened One Bite
DYEAR=1978
DGENRE=Rock
TTITLE0=Cruizin'
TTITLE1=Crazy - 'Cause He Is
TTITLE2=Garden In The Rain
TTITLE3=Boogaloo Jones
TTITLE4=Cloud My Sunny Mood
TTITLE5=Dizzy Dogs
TTITLE6=Vinnie's Lookin' Good
TTITLE7=Lover's For Life
TTITLE8=Collared Blues
TTITLE9=Waitin'
TTITLE10=Reveille Revisited
TTITLE11=Mama, I'm An Outlaw
TTITLE12=Boogaloo Plays Guitar
EXTD=YEAR: 1978
EXTT0=
EXTT1=
EXTT2=
EXTT3=
EXTT4=
EXTT5=
EXTT6=
EXTT7=
EXTT8=
EXTT9=
EXTT10=
EXTT11=
EXTT12=
PLAYORDER=
